<svg width="185" height="92" viewBox="0 0 185 92" fill="none" xmlns="http://www.w3.org/2000/svg">
<path d="M31.7631 16.3256C0.268341 20.3659 2.27771 45.8077 3.6178 55.3857C5.61254 69.6426 21.378 93.0985 45.1666 88.3844C54.3341 86.5677 61.6928 83.4799 67.2199 80.303C72.6054 77.6269 73.1832 71.8088 73.307 70.5623L73.3094 70.5383C73.6444 67.1711 67.8153 60.7776 62.3255 56.8116C59.0609 54.4532 56.2824 52.9632 54.883 53.365C50.1924 54.7119 37.6531 73.1345 30.4218 50.6716C26.7363 39.2229 51.5339 43.9363 54.883 40.2327C58.2321 36.5291 60.2424 32.8252 60.2424 32.8252C62.2527 29.7946 62.2527 25.0805 64.5995 20.3659C64.7492 20.0651 59.9088 18.6159 59.9088 18.6159C59.9088 18.6159 39.4679 15.3158 31.7631 16.3256Z" fill="white" fill-opacity="0.85"/>
<path d="M75.6562 13.9682H59.2387L59.9088 18.6159C59.9088 18.6159 64.7492 20.0651 64.5995 20.3659C62.2527 25.0805 62.2527 29.7946 60.2424 32.8252C60.6178 40.4049 61.3604 47.2018 62.3255 56.8116C67.8153 60.7776 73.6444 67.1711 73.3094 70.5383L73.307 70.5623C73.1832 71.8088 72.6054 77.6269 67.2199 80.303C69.8403 82.9968 75.6562 83.6702 78.6717 80.303C80.9876 77.7169 79.7463 64.8035 79.0456 60.1709C78.8039 59.5227 78.6717 59.0328 78.6717 58.7526C78.6717 58.1277 78.834 58.7715 79.0456 60.1709C80.7915 64.8525 88.2479 77.7906 92.8272 79.613C93.1297 73.2257 94.7392 59.2048 96.2623 49.1746C95.3946 46.0096 94.1331 43.6692 92.4088 42.9265C85.3727 39.896 75.6562 45.957 78.6717 42.9265C81.0841 40.5021 77.6665 22.6108 75.6562 13.9682Z" fill="white" fill-opacity="0.85"/>
<path d="M119.548 78.2829C120.888 76.6669 112.959 49.9981 108.826 36.8658L108.353 36.9133L98.7747 37.8759C98.2475 37.611 97.274 42.5126 96.2623 49.1746C94.7392 59.2048 93.1297 73.2257 92.8272 79.613C92.7177 81.9258 92.7795 83.2378 93.0789 82.9971C103.096 84.9613 111.865 82.4138 116.4 80.2633C118.085 79.4646 119.185 78.7206 119.548 78.2829Z" fill="white" fill-opacity="0.85"/>
<path d="M108.826 36.8658C112.959 49.9981 120.888 76.6669 119.548 78.2829C119.185 78.7206 118.085 79.4646 116.4 80.2633C117.532 82.0304 122.166 79.8515 124.574 79.2931C127.142 78.283 131.543 75.8586 128.594 74.2423C125.646 72.626 124.685 63.9161 124.574 59.7631C124.685 55.1612 126.383 45.7554 132.28 44.9473C139.452 43.9644 135.839 53.5007 139.651 53.3968C139.757 53.3939 139.868 53.3836 139.986 53.3654C145.682 51.6817 151.441 44.2738 150.037 41.2433C147.353 35.4486 143.757 32.5318 139.986 31.39C133.59 29.4532 126.693 32.6238 122.898 35.519C122.563 33.8353 121.424 30.3334 119.548 29.7946C112.579 28.7171 109.496 30.917 108.826 32.1517C108.17 32.4157 108.079 34.193 108.353 36.9133L108.826 36.8658Z" fill="white" fill-opacity="0.85"/>
<path fill-rule="evenodd" clip-rule="evenodd" d="M150.037 41.2433C151.441 44.2738 145.682 51.6817 139.986 53.3654C139.868 53.3836 139.757 53.3939 139.651 53.3968C139.435 62.6859 137.306 77.2729 138.981 80.2633C139.986 81.987 144.141 84.8828 150.037 82.9971C157.409 80.6399 155.733 56.3959 159.084 53.3654C162.434 50.3349 174.496 52.6919 177.847 46.9676C181.197 41.2433 184.883 21.3765 171.816 18.346C160.333 15.683 149.032 19.6929 145.682 21.3765C140.602 23.9292 139.651 28.8379 139.986 31.39C143.757 32.5318 147.353 35.4486 150.037 41.2433ZM158.079 38.8862C154.213 37.9149 157.297 32.3762 158.749 31.4783C159.754 30.5803 164.11 29.1212 166.12 32.1517C168.13 35.1822 164.78 37.5393 164.11 37.876C163.439 38.2127 160.759 39.5597 158.079 38.8862Z" fill="white" fill-opacity="0.85"/>
<path d="M110.837 3.86672C101.718 -1.93715 82.2002 23.1112 100.785 28.4476C112.512 31.8149 120.888 10.2645 110.837 3.86672Z" fill="white" fill-opacity="0.85"/>
<path d="M73.3094 70.5383C73.6444 67.1711 67.8153 60.7776 62.3255 56.8116M73.3094 70.5383L73.307 70.5623M73.3094 70.5383C73.3086 70.5461 73.3078 70.5541 73.307 70.5623M59.2387 13.9682H75.6562C77.6665 22.6108 81.0841 40.5021 78.6717 42.9265C75.6562 45.957 85.3727 39.896 92.4088 42.9265C94.1331 43.6692 95.3946 46.0096 96.2623 49.1746M59.2387 13.9682C59.5004 15.7832 59.6472 16.8009 59.9088 18.6159M59.2387 13.9682L59.9088 18.6159M67.2199 80.303C61.6928 83.4799 54.3341 86.5677 45.1666 88.3844C21.378 93.0985 5.61254 69.6426 3.6178 55.3857C2.27771 45.8077 0.268341 20.3659 31.7631 16.3256C39.4679 15.3158 59.9088 18.6159 59.9088 18.6159M67.2199 80.303C69.8403 82.9968 75.6562 83.6702 78.6717 80.303C80.9876 77.7169 79.7463 64.8035 79.0456 60.1709M67.2199 80.303C72.6054 77.6269 73.1832 71.8088 73.307 70.5623M59.9088 18.6159C59.9088 18.6159 64.7492 20.0651 64.5995 20.3659C62.2527 25.0805 62.2527 29.7946 60.2424 32.8252M108.353 36.9133C108.079 34.193 108.17 32.4157 108.826 32.1517C109.496 30.917 112.579 28.7171 119.548 29.7946C121.424 30.3334 122.563 33.8353 122.898 35.519C126.693 32.6238 133.59 29.4532 139.986 31.39M108.353 36.9133L98.7747 37.8759C98.2475 37.611 97.274 42.5126 96.2623 49.1746M108.353 36.9133L108.826 36.8658C112.959 49.9981 120.888 76.6669 119.548 78.2829C119.185 78.7206 118.085 79.4646 116.4 80.2633M116.4 80.2633C117.532 82.0304 122.166 79.8515 124.574 79.2931C127.142 78.283 131.543 75.8586 128.594 74.2423C125.646 72.626 124.685 63.9161 124.574 59.7631C124.685 55.1612 126.383 45.7554 132.28 44.9472C139.452 43.9644 135.839 53.5007 139.651 53.3968M116.4 80.2633C111.865 82.4138 103.096 84.9613 93.0789 82.9971C92.7795 83.2378 92.7177 81.9258 92.8272 79.613M92.8272 79.613C93.1297 73.2257 94.7392 59.2048 96.2623 49.1746M92.8272 79.613C88.2479 77.7906 80.7915 64.8525 79.0456 60.1709M60.2424 32.8252C60.2424 32.8252 58.2321 36.5291 54.883 40.2327C51.5339 43.9363 26.7363 39.2229 30.4218 50.6716C37.6531 73.1345 50.1924 54.7119 54.883 53.365C56.2824 52.9632 59.0609 54.4532 62.3255 56.8116M60.2424 32.8252C60.6178 40.4049 61.3604 47.2018 62.3255 56.8116M139.986 31.39C143.757 32.5318 147.353 35.4486 150.037 41.2433C151.441 44.2738 145.682 51.6817 139.986 53.3654C139.868 53.3836 139.757 53.3939 139.651 53.3968M139.986 31.39C139.651 28.8379 140.602 23.9292 145.682 21.3765C149.032 19.6929 160.333 15.683 171.816 18.346C184.883 21.3765 181.197 41.2433 177.847 46.9676C174.496 52.6919 162.434 50.3348 159.084 53.3654C155.733 56.3959 157.409 80.6399 150.037 82.9971C144.141 84.8828 139.986 81.987 138.981 80.2633C137.306 77.2728 139.435 62.6859 139.651 53.3968M79.0456 60.1709C78.8039 59.5227 78.6717 59.0328 78.6717 58.7526C78.6717 58.1277 78.834 58.7714 79.0456 60.1709ZM110.837 3.86672C101.718 -1.93715 82.2002 23.1112 100.785 28.4476C112.512 31.8149 120.888 10.2645 110.837 3.86672ZM158.749 31.4783C157.297 32.3762 154.213 37.9149 158.079 38.8862C160.759 39.5597 163.439 38.2128 164.11 37.876C164.78 37.5393 168.13 35.1822 166.12 32.1517C164.11 29.1212 159.754 30.5803 158.749 31.4783Z" stroke="url(#paint0_linear_14_14)" stroke-width="6"/>
<path d="M73.3094 70.5383C73.6444 67.1711 67.8153 60.7776 62.3255 56.8116M73.3094 70.5383L73.307 70.5623M73.3094 70.5383C73.3086 70.5461 73.3078 70.5541 73.307 70.5623M59.2387 13.9682H75.6562C77.6665 22.6108 81.0841 40.5021 78.6717 42.9265C75.6562 45.957 85.3727 39.896 92.4088 42.9265C94.1331 43.6692 95.3946 46.0096 96.2623 49.1746M59.2387 13.9682C59.5004 15.7832 59.6472 16.8009 59.9088 18.6159M59.2387 13.9682L59.9088 18.6159M67.2199 80.303C61.6928 83.4799 54.3341 86.5677 45.1666 88.3844C21.378 93.0985 5.61254 69.6426 3.6178 55.3857C2.27771 45.8077 0.268341 20.3659 31.7631 16.3256C39.4679 15.3158 59.9088 18.6159 59.9088 18.6159M67.2199 80.303C69.8403 82.9968 75.6562 83.6702 78.6717 80.303C80.9876 77.7169 79.7463 64.8035 79.0456 60.1709M67.2199 80.303C72.6054 77.6269 73.1832 71.8088 73.307 70.5623M59.9088 18.6159C59.9088 18.6159 64.7492 20.0651 64.5995 20.3659C62.2527 25.0805 62.2527 29.7946 60.2424 32.8252M108.353 36.9133C108.079 34.193 108.17 32.4157 108.826 32.1517C109.496 30.917 112.579 28.7171 119.548 29.7946C121.424 30.3334 122.563 33.8353 122.898 35.519C126.693 32.6238 133.59 29.4532 139.986 31.39M108.353 36.9133L98.7747 37.8759C98.2475 37.611 97.274 42.5126 96.2623 49.1746M108.353 36.9133L108.826 36.8658C112.959 49.9981 120.888 76.6669 119.548 78.2829C119.185 78.7206 118.085 79.4646 116.4 80.2633M116.4 80.2633C117.532 82.0304 122.166 79.8515 124.574 79.2931C127.142 78.283 131.543 75.8586 128.594 74.2423C125.646 72.626 124.685 63.9161 124.574 59.7631C124.685 55.1612 126.383 45.7554 132.28 44.9472C139.452 43.9644 135.839 53.5007 139.651 53.3968M116.4 80.2633C111.865 82.4138 103.096 84.9613 93.0789 82.9971C92.7795 83.2378 92.7177 81.9258 92.8272 79.613M92.8272 79.613C93.1297 73.2257 94.7392 59.2048 96.2623 49.1746M92.8272 79.613C88.2479 77.7906 80.7915 64.8525 79.0456 60.1709M60.2424 32.8252C60.2424 32.8252 58.2321 36.5291 54.883 40.2327C51.5339 43.9363 26.7363 39.2229 30.4218 50.6716C37.6531 73.1345 50.1924 54.7119 54.883 53.365C56.2824 52.9632 59.0609 54.4532 62.3255 56.8116M60.2424 32.8252C60.6178 40.4049 61.3604 47.2018 62.3255 56.8116M139.986 31.39C143.757 32.5318 147.353 35.4486 150.037 41.2433C151.441 44.2738 145.682 51.6817 139.986 53.3654C139.868 53.3836 139.757 53.3939 139.651 53.3968M139.986 31.39C139.651 28.8379 140.602 23.9292 145.682 21.3765C149.032 19.6929 160.333 15.683 171.816 18.346C184.883 21.3765 181.197 41.2433 177.847 46.9676C174.496 52.6919 162.434 50.3348 159.084 53.3654C155.733 56.3959 157.409 80.6399 150.037 82.9971C144.141 84.8828 139.986 81.987 138.981 80.2633C137.306 77.2728 139.435 62.6859 139.651 53.3968M79.0456 60.1709C78.8039 59.5227 78.6717 59.0328 78.6717 58.7526C78.6717 58.1277 78.834 58.7714 79.0456 60.1709ZM110.837 3.86672C101.718 -1.93715 82.2002 23.1112 100.785 28.4476C112.512 31.8149 120.888 10.2645 110.837 3.86672ZM158.749 31.4783C157.297 32.3762 154.213 37.9149 158.079 38.8862C160.759 39.5597 163.439 38.2128 164.11 37.876C164.78 37.5393 168.13 35.1822 166.12 32.1517C164.11 29.1212 159.754 30.5803 158.749 31.4783Z" stroke="white" stroke-opacity="0.06" stroke-width="6"/>
<defs>
<linearGradient id="paint0_linear_14_14" x1="402" y1="46" x2="3" y2="46" gradientUnits="userSpaceOnUse">
<stop stop-color="#4D1D8D"/>
<stop offset="0.504808" stop-color="#248CDA"/>
<stop offset="1" stop-color="#6D12E6"/>
</linearGradient>
</defs>
</svg>
